<svg width="23" height="26" viewBox="0 0 23 26" fill="none" xmlns="http://www.w3.org/2000/svg">
<g clip-path="url(#clip0)">
<path d="M11.3801 7.16015C8.15039 7.16015 5.54531 9.76523 5.54531 12.9949C5.54531 16.2246 8.15039 18.8297 11.3801 18.8297C14.6098 18.8297 17.2148 16.2246 17.2148 12.9949C17.2148 9.76523 14.6098 7.16015 11.3801 7.16015ZM11.3801 16.7883C9.29297 16.7883 7.58672 15.0871 7.58672 12.9949C7.58672 10.9027 9.28789 9.20156 11.3801 9.20156C13.4723 9.20156 15.1734 10.9027 15.1734 12.9949C15.1734 15.0871 13.4672 16.7883 11.3801 16.7883ZM18.8145 6.92148C18.8145 7.67812 18.2051 8.28242 17.4535 8.28242C16.6969 8.28242 16.0926 7.67305 16.0926 6.92148C16.0926 6.16992 16.702 5.56055 17.4535 5.56055C18.2051 5.56055 18.8145 6.16992 18.8145 6.92148ZM22.6789 8.30273C22.5926 6.47969 22.1762 4.86484 20.8406 3.53437C19.5102 2.2039 17.8953 1.7875 16.0723 1.69609C14.1934 1.58945 8.56172 1.58945 6.68281 1.69609C4.86485 1.78242 3.25 2.19883 1.91445 3.5293C0.578908 4.85976 0.16758 6.47461 0.0761734 8.29765C-0.0304672 10.1766 -0.0304672 15.8082 0.0761734 17.6871C0.162502 19.5102 0.578908 21.125 1.91445 22.4555C3.25 23.7859 4.85977 24.2023 6.68281 24.2937C8.56172 24.4004 14.1934 24.4004 16.0723 24.2937C17.8953 24.2074 19.5102 23.791 20.8406 22.4555C22.1711 21.125 22.5875 19.5102 22.6789 17.6871C22.7855 15.8082 22.7855 10.1816 22.6789 8.30273ZM20.2516 19.7031C19.8555 20.6984 19.0887 21.4652 18.0883 21.8664C16.5902 22.4605 13.0355 22.3234 11.3801 22.3234C9.72461 22.3234 6.16484 22.4555 4.67188 21.8664C3.67656 21.4703 2.90977 20.7035 2.5086 19.7031C1.91445 18.2051 2.05156 14.6504 2.05156 12.9949C2.05156 11.3395 1.91953 7.77969 2.5086 6.28672C2.90469 5.2914 3.67149 4.52461 4.67188 4.12344C6.16992 3.5293 9.72461 3.6664 11.3801 3.6664C13.0355 3.6664 16.5953 3.53437 18.0883 4.12344C19.0836 4.51953 19.8504 5.28633 20.2516 6.28672C20.8457 7.78476 20.7086 11.3395 20.7086 12.9949C20.7086 14.6504 20.8457 18.2102 20.2516 19.7031Z" fill="#CFD1D0"/>
</g>
<defs>
<clipPath id="clip0">
<rect width="22.75" height="26" fill="white"/>
</clipPath>
</defs>
</svg>
